<svg viewBox="0 0 16 16" xmlns="http://www.w3.org/2000/svg">

    
    <polygon fill="#515158" points="10,1 10,7 12,7 12,1"></polygon>
    <polygon fill="#515158" points="11,0 11,2 13,2 13,0"></polygon>
    <polygon fill="#515158" points="13,0 13,1 14,1 14,0"></polygon>

    
    <polygon fill="#515158" points="9,4 9,6 15,6 15,4"></polygon>
    <polygon fill="#515158" points="14,3 14,5 16,5 16,3"></polygon>
    <polygon fill="#515158" points="15,2 15,3 16,3 16,2"></polygon>

    
    <polygon fill="#38383d" points="0,14 0,16 2,16 2,14"></polygon>
    <polygon fill="#38383d" points="1,13 1,15 3,15 3,13"></polygon>
    <polygon fill="#38383d" points="2,12 2,14 4,14 4,12"></polygon>
    <polygon fill="#38383d" points="3,11 3,13 5,13 5,11"></polygon>
    <polygon fill="#38383d" points="4,10 4,12 6,12 6,10"></polygon>
    <polygon fill="#38383d" points="5,9 5,11 7,11 7,9"></polygon>
    <polygon fill="#38383d" points="6,8 6,10 8,10 8,8"></polygon>
    <polygon fill="#38383d" points="7,7 7,9 9,9 9,7"></polygon>
    <polygon fill="#38383d" points="8,6 8,8 10,8 10,6"></polygon>
    <polygon fill="#38383d" points="9,5 9,7 11,7 11,5"></polygon>

    
    <polygon fill="#75737d" points="1,14 1,15 2,15 2,14"></polygon>
    <polygon fill="#75737d" points="2,13 2,14 3,14 3,13"></polygon>
    <polygon fill="#75737d" points="3,12 3,13 4,13 4,12"></polygon>
    <polygon fill="#75737d" points="4,11 4,12 5,12 5,11"></polygon>
    <polygon fill="#75737d" points="5,10 5,11 6,11 6,10"></polygon>
    <polygon fill="#75737d" points="6,9 6,10 7,10 7,9"></polygon>
    <polygon fill="#75737d" points="7,8 7,9 8,9 8,8"></polygon>
    <polygon fill="#75737d" points="8,7 8,8 9,8 9,7"></polygon>
    <polygon fill="#75737d" points="9,6 9,7 10,7 10,6"></polygon>
    
    <polygon fill="#75737d" points="10,4 10,6 12,6 12,4"></polygon>

    
    <rect fill="#515158" height="1" width="1" y="4" x="11"></rect>
</svg>