<svg viewBox="0 0 16 16" xmlns="http://www.w3.org/2000/svg">
    
    <rect fill="#515158" height="6" width="2" y="1" x="10"></rect>
    <rect fill="#515158" height="2" width="2" y="0" x="11"></rect>
    <rect fill="#515158" height="1" width="1" y="0" x="13"></rect>

    
    <rect fill="#515158" height="2" width="6" y="4" x="9"></rect>
    <rect fill="#515158" height="2" width="2" y="3" x="14"></rect>
    <rect fill="#515158" height="1" width="1" y="2" x="15"></rect>

    
    <rect fill="#38383d" height="2" width="2" y="14" x="0"></rect>
    <rect fill="#38383d" height="2" width="2" y="13" x="1"></rect>
    <rect fill="#38383d" height="2" width="2" y="12" x="2"></rect>
    <rect fill="#38383d" height="2" width="2" y="11" x="3"></rect>
    <rect fill="#38383d" height="2" width="2" y="10" x="4"></rect>
    <rect fill="#38383d" height="2" width="2" y="9" x="5"></rect>
    <rect fill="#38383d" height="2" width="2" y="8" x="6"></rect>
    <rect fill="#38383d" height="2" width="2" y="7" x="7"></rect>
    <rect fill="#38383d" height="2" width="2" y="6" x="8"></rect>
    <rect fill="#38383d" height="2" width="2" y="5" x="9"></rect>

    
    <rect fill="#75737d" height="1" width="1" y="14" x="1"></rect>
    <rect fill="#75737d" height="1" width="1" y="13" x="2"></rect>
    <rect fill="#75737d" height="1" width="1" y="12" x="3"></rect>
    <rect fill="#75737d" height="1" width="1" y="11" x="4"></rect>
    <rect fill="#75737d" height="1" width="1" y="10" x="5"></rect>
    <rect fill="#75737d" height="1" width="1" y="9" x="6"></rect>
    <rect fill="#75737d" height="1" width="1" y="8" x="7"></rect>
    <rect fill="#75737d" height="1" width="1" y="7" x="8"></rect>
    <rect fill="#75737d" height="1" width="1" y="6" x="9"></rect>
    <rect fill="#75737d" height="2" width="2" y="4" x="10"></rect>

    
    <rect fill="#515158" height="1" width="1" y="4" x="11"></rect>
</svg>